<?xml version="1.0" encoding="iso-8859-1"?>
<!-- Generator: Adobe Illustrator 19.0.0, SVG Export Plug-In . SVG Version: 6.00 Build 0)  -->
<svg version="1.1" id="Capa_1" xmlns="http://www.w3.org/2000/svg" xmlns:xlink="http://www.w3.org/1999/xlink" x="0px" y="0px"
	 viewBox="0 0 462.942 462.942" style="enable-background:new 0 0 462.942 462.942;" xml:space="preserve">
<path style="fill:#ED664C;" d="M373.4,164.277c-7.6-0.4-15.1-1.8-22.3-4.4l-47.6,47.3l-36.4,36.2c5.7,22,0.4,46.2-16.8,63.4
	c-26,25.5-67.3,25.5-92.8,0c-25.5-26-25.5-67.3,0-92.8c17.2-17.2,41.3-22.4,63.4-16.7l37.1-37.1l46.9-47c-2.8-8.1-4.2-16.7-4.3-25.2
	c-0.1-19.7,7.2-39.4,22.3-54.5c21.6-21.5,52.8-27.7,79.6-18l-37.4,37.4l46.2,46.6l37.3-37.3c9.2,26.8,3.5,58-18,79.6
	C414.9,157.477,394,165.077,373.4,164.277z M220,276.377c8.8-8.8,8.8-23.3,0-32.1c-8.8-8.8-23.3-8.8-32.1,0s-8.8,23.3,0,32.1
	C196.7,285.177,210.8,285.177,220,276.377z"/>
<path style="fill:#FDC75B;" d="M394.1,302.277l-20.4,52.9l-31.6-0.9c-10.2,15.3-22.7,28.3-37.1,39l2.3,31.6l-52,22.7l-21.8-22.7
	c-17.7,3.3-35.7,3.7-53.8,1.4l-20.4,23.7l-52.8-20.6l0.9-31.5c-15.3-10.2-28.3-22.7-39-37.1l-31.5,2.3l-22.7-52l22.7-21.8
	c-3.3-17.6-3.7-35.7-1.4-53.8l-23.6-20.4l20.4-52.8l31.6,0.9c10.2-15.3,22.7-28.3,37.1-39l-2.3-31.5l52-22.7l21.8,22.7
	c17.7-3.3,35.7-3.7,53.8-1.4l20.4-23.6l52.9,20.4h1.2c0.1,8.5,1.5,17.1,4.3,25.2l-46.9,47l-1-1c-16.1-8.7-34.5-13.7-54-13.7
	c-62.6,0-113.3,50.7-113.3,113.3s50.7,113.3,113.3,113.3s113.3-50.7,113.3-113.3c0-18.3-4.4-35.6-12.1-50.9l-0.6-0.6l47.5-47.3
	c7.2,2.6,14.8,4,22.3,4.4l18.4,42l-22.7,21.8c3.2,17.7,3.7,35.7,1.4,53.8L394.1,302.277z"/>
<path d="M451,52.377c-3.4-0.8-6.9,0.2-9.3,2.7l-30.3,30.3l-32.1-32.4l30.4-30.4c2.4-2.4,3.4-5.9,2.7-9.2c-0.7-3.3-3.1-6.1-6.4-7.2
	c-31.1-11.2-66.4-3.3-90.1,20.4c-13.1,13.1-21.4,29.8-24.2,47.8l-48-18.6l-21.5,25c-15.5-1.5-31-1.1-46.2,1.2l-23-24l-64.8,28.4
	l2.4,33.2c-12.2,9.7-22.9,20.9-31.9,33.5l-33.2-1l-25.5,66l25,21.6c-1.5,15.5-1.1,31,1.2,46.1l-24,23l28.4,64.8l33.2-2.4
	c9.6,12.1,20.8,22.8,33.5,31.9l-1,33.2l66.1,25.5l21.6-25c15.5,1.5,31,1.2,46.1-1.2l23,23.9l64.8-28.3l-2.4-33.3
	c12.2-9.7,22.9-20.9,31.9-33.5l33.2,1l25.5-66.1l-25-21.5c1.5-15.5,1.1-30.9-1.2-46.2l23.9-23l-15.4-35.2
	c18.5-2.6,36-11.2,49.4-24.6c23.2-23.2,31.2-58.5,20.4-89.9C457.1,55.677,454.3,53.177,451,52.377z M358.3,224.577l1,5.3
	c3,16.7,3.5,33.8,1.3,50.8l-0.7,5.3l22.4,19.3l-15.3,39.7l-30-0.9l-3.1,4.6c-9.3,14.1-21,26.3-34.7,36.5l-4.4,3.3l2.2,30l-39.1,17.1
	l-20.7-21.6l-5.3,1c-16.5,3-33.6,3.5-50.7,1.3l-5.3-0.7l-19.3,22.4l-39.7-15.3l0.9-30l-4.6-3.1c-14.2-9.5-26.4-21.2-36.5-34.8
	l-3.3-4.4l-30,2.2l-17.1-39.1l21.6-20.7l-1-5.3c-3.1-16.6-3.5-33.6-1.3-50.7l0.7-5.3l-22.4-19.3l15.3-39.7l30,0.8l3.1-4.6
	c9.4-14,21-26.3,34.7-36.5l4.4-3.3l-2.2-29.9l39.1-17.1l20.7,21.6l5.3-1c16.6-3.1,33.7-3.5,50.8-1.3l5.3,0.7l19.3-22.4l41.4,16
	c0.4,5,1.3,10,2.6,14.9l-37.2,37.3c-16.6-8-34.9-12.2-53.4-12.2c-68,0-123.3,55.3-123.3,123.3s55.3,123.3,123.3,123.3
	s123.3-55.3,123.3-123.3c0-17.1-3.6-34.1-10.4-49.6l38-37.9c4.2,1.2,8.4,2,12.8,2.5l13.2,30.2L358.3,224.577z M278,246.577
	l22.4-22.2c3.9,11,5.9,22.6,5.9,34.3c0,56.9-46.3,103.3-103.3,103.3s-103.3-46.3-103.3-103.3s46.3-103.3,103.3-103.3
	c13.1,0,26.1,2.5,38.2,7.3l-23.5,23.5c-24.8-4.6-49.6,2.9-67.2,20.6c-14.2,14.2-22.1,33.2-22.1,53.3s7.8,39.1,22.1,53.6
	c14.2,14.2,33.2,22.1,53.3,22.1s39.1-7.8,53.6-22.1C275,296.177,282.5,271.377,278,246.577z M423.6,134.677
	c-13.2,13.2-31.4,20.3-49.8,19.6c-6.6-0.3-13.2-1.6-19.5-3.8c-3.6-1.3-7.7-0.4-10.4,2.3l-47.4,47.3l-36.5,36.2
	c-2.5,2.5-3.5,6.2-2.6,9.6c5.1,19.7-0.2,39.8-14.1,53.7c-21.9,21.5-57.2,21.6-78.7,0.1c-21.5-21.9-21.6-57.2-0.1-78.7
	c10.4-10.4,24.3-16,38.9-16c4.9,0,9.9,0.6,14.9,1.9c3.4,0.9,7.1-0.1,9.6-2.6l37.1-37.1l0,0l46.9-47c2.7-2.7,3.6-6.7,2.4-10.3
	c-2.4-7-3.7-14.4-3.7-22c-0.1-17.9,6.8-34.7,19.3-47.3c14.1-14.1,33.5-20.9,52.6-19.3l-24.5,24.5c-3.9,3.9-3.9,10.2,0,14.1
	l46.2,46.5c1.9,1.9,4.4,2.9,7.1,2.9l0,0c2.7,0,5.2-1,7.1-2.9l24.3-24.3C444.2,101.477,437.4,120.877,423.6,134.677z"/>
<path d="M204,227.677c-8.8,0-17,3.4-23.2,9.5c-12.7,12.7-12.7,33.5,0,46.2l0,0c6.4,6.4,14.7,9.6,23,9.6s16.6-3.1,23.1-9.4l0.1-0.1
	c6.2-6.1,9.6-14.4,9.6-23.1c0-8.8-3.4-17-9.5-23.1C220.9,231.077,212.7,227.677,204,227.677z M213,269.277c-5.3,5-13,5.1-18,0.1
	c-4.9-4.9-4.9-13.2,0-18.1c2.4-2.4,5.6-3.8,9-3.8l0,0c3.4,0,6.6,1.5,9,3.9s3.7,5.6,3.7,9C216.6,263.677,215.3,266.877,213,269.277z"
	/>
<g>
</g>
<g>
</g>
<g>
</g>
<g>
</g>
<g>
</g>
<g>
</g>
<g>
</g>
<g>
</g>
<g>
</g>
<g>
</g>
<g>
</g>
<g>
</g>
<g>
</g>
<g>
</g>
<g>
</g>
</svg>
